<svg t="1772555129957" class="icon" viewBox="0 0 1024 1024" version="1.1" xmlns="http://www.w3.org/2000/svg" p-id="5835" width="200" height="200">
  <path d="M514.133333 433.066667c-102.4 0-187.733333-83.2-187.733333-187.733334 0-102.4 83.2-187.733333 187.733333-187.733333s187.733333 83.2 187.733334 187.733333c0 102.4-85.333333 187.733333-187.733334 187.733334z m0-311.466667c-68.266667 0-123.733333 55.466667-123.733333 123.733333 0 68.266667 55.466667 123.733333 123.733333 123.733334s123.733333-55.466667 123.733334-123.733334c0-68.266667-55.466667-123.733333-123.733334-123.733333z" fill="#1296db" p-id="5836"/>
  <path d="M689.066667 994.133333H339.2c-142.933333 0-260.266667-117.333333-260.266667-260.266666s117.333333-260.266667 260.266667-260.266667h352c142.933333 0 260.266667 117.333333 260.266667 260.266667S832 994.133333 689.066667 994.133333zM339.2 539.733333c-106.666667 0-196.266667 87.466667-196.266667 196.266667s87.466667 196.266667 196.266667 196.266667h352c106.666667 0 196.266667-87.466667 196.266667-196.266667s-87.466667-196.266667-196.266667-196.266667H339.2z" fill="#1296db" p-id="5837"/>
</svg>
